<svg width="18" height="16" fill="none" xmlns="http://www.w3.org/2000/svg"><path d="M0 13.333V8a8 8 0 1 1 16 0v5.333" stroke="#CFCBD2" stroke-width="2" stroke-linecap="round" stroke-linejoin="round"/><path d="M15 10.778h1a1 1 0 0 0-1-1v1zm-14 0v-1a1 1 0 0 0-1 1h1zm12.556.778c0 .122-.1.222-.223.222v-2c-.982 0-1.777.796-1.777 1.778h2zm0 2.666v-2.666h-2v2.666h2zM13.333 14c.123 0 .223.1.223.222h-2c0 .982.796 1.778 1.777 1.778v-2zm.89 0h-.89v2h.89v-2zm-.223.222c0-.122.1-.222.222-.222v2c.982 0 1.778-.796 1.778-1.778h-2zm0-3.444v3.444h2v-3.444h-2zm-.667 1H15v-2h-1.667v2zm0-4a3.778 3.778 0 0 0-3.777 3.778h2c0-.982.796-1.778 1.777-1.778v-2zm2.667 0h-2.667v2H16v-2zm2 2a2 2 0 0 0-2-2v2h2zm0 4.444V9.778h-2v4.444h2zM14.222 18A3.778 3.778 0 0 0 18 14.222h-2c0 .982-.796 1.778-1.778 1.778v2zm-.889 0h.89v-2h-.89v2zm-3.777-3.778A3.778 3.778 0 0 0 13.333 18v-2a1.778 1.778 0 0 1-1.777-1.778h-2zm0-2.666v2.666h2v-2.666h-2zM0 7.778a2 2 0 0 0-2 2h2v-2zm2.667 0H0v2h2.667v-2zm3.777 3.778a3.778 3.778 0 0 0-3.777-3.778v2c.982 0 1.777.796 1.777 1.778h2zm0 2.666v-2.666h-2v2.666h2zM2.667 18a3.778 3.778 0 0 0 3.777-3.778h-2c0 .982-.795 1.778-1.777 1.778v2zm-.89 0h.89v-2h-.89v2zM-2 14.222A3.778 3.778 0 0 0 1.778 18v-2A1.778 1.778 0 0 1 0 14.222h-2zm0-4.444v4.444h2V9.778h-2zm4 4.444v-3.444H0v3.444h2zM1.778 14c.123 0 .222.1.222.222H0C0 15.204.796 16 1.778 16v-2zm.889 0h-.89v2h.89v-2zm-.223.222c0-.122.1-.222.223-.222v2c.982 0 1.777-.796 1.777-1.778h-2zm0-2.666v2.666h2v-2.666h-2zm.223.222a.222.222 0 0 1-.223-.222h2c0-.982-.795-1.778-1.777-1.778v2zm-1.667 0h1.667v-2H1v2z" fill="#CFCBD2"/></svg>