<svg width="16" height="16" fill="none" xmlns="http://www.w3.org/2000/svg"><path fill-rule="evenodd" clip-rule="evenodd" d="M4.667 8c0 .518.565.838 1.01.572L7 7.777l1.324.795A.667.667 0 0 0 9.334 8V1.333a.667.667 0 0 0-.667-.666H5.333a.667.667 0 0 0-.666.666V8zm1.99-1.572L6 6.823V2h2v4.823l-.657-.395a.667.667 0 0 0-.686 0z" fill="#E66CFF" fill-opacity=".98"/><path d="M3.333 2h7.334a2 2 0 0 1 2 2v8a2 2 0 0 1-2 2H4a.667.667 0 0 0 0 1.333h6.667A3.333 3.333 0 0 0 14 12V4A3.333 3.333 0 0 0 10.667.667h-8A.667.667 0 0 0 2 1.333V12a.667.667 0 1 0 1.333 0V2z" fill="#9013FE"/><circle cx="10.667" cy="12" r=".667" fill="#FF9F00"/></svg>